# xmcd
#
# Track frame offsets:
#	150
#	19337
#	33222
#	57940
#	78197
#	106120
#	124862
#	143495
#	163870
#	181867
#
# Disc length: 2687 seconds
#
# Revision: 0
# Processed by: cddbd v1.5.2PL0 Copyright (c) Steve Scherf et al.
# Submitted via: MusicWizard 7.1.1b
#
DISCID=750a7d0a
DTITLE=Susan Ashton - Wakened By The Wind
DYEAR=1991
DGENRE=Country
TTITLE0=Down On My Knees
TTITLE1=No One Knows My Heart
TTITLE2=Benediction
TTITLE3=Ball And Chain
TTITLE4=I Hear You
TTITLE5=Land Of Nod
TTITLE6=In My Father's Hands
TTITLE7=In Amazing Grace Land
TTITLE8=Suffer In Silence
TTITLE9=Beyond Justice To Mercy
EXTD=
EXTT0=
EXTT1=
EXTT2=
EXTT3=
EXTT4=
EXTT5=
EXTT6=
EXTT7=
EXTT8=
EXTT9=
PLAYORDER=
